<?xml version="1.0" encoding="utf-8" ?>
<svg baseProfile="tiny" height="512px" version="1.2" width="512px" xmlns="http://www.w3.org/2000/svg" xmlns:ev="http://www.w3.org/2001/xml-events" xmlns:xlink="http://www.w3.org/1999/xlink"><defs /><polygon fill="#e6e6fa" points="100,150 250,100 250,400 100,350" stroke="black" stroke-width="3" /><polygon fill="#f5f5ff" points="250,100 412,150 412,350 250,400" stroke="black" stroke-width="3" /><line stroke="black" stroke-width="2" x1="250" x2="250" y1="100" y2="400" /><line stroke="#666" stroke-width="2" x1="120" x2="240" y1="160" y2="160" /><line stroke="#666" stroke-width="2" x1="120" x2="240" y1="190" y2="190" /><line stroke="#666" stroke-width="2" x1="120" x2="240" y1="220" y2="220" /><line stroke="#666" stroke-width="2" x1="120" x2="240" y1="250" y2="250" /><line stroke="#666" stroke-width="2" x1="120" x2="240" y1="280" y2="280" /><line stroke="#666" stroke-width="2" x1="120" x2="240" y1="310" y2="310" /><line stroke="#666" stroke-width="2" x1="265" x2="390" y1="160" y2="160" /><line stroke="#666" stroke-width="2" x1="265" x2="390" y1="190" y2="190" /><line stroke="#666" stroke-width="2" x1="265" x2="390" y1="220" y2="220" /><line stroke="#666" stroke-width="2" x1="265" x2="390" y1="250" y2="250" /><line stroke="#666" stroke-width="2" x1="265" x2="390" y1="280" y2="280" /><line stroke="#666" stroke-width="2" x1="265" x2="390" y1="310" y2="310" /></svg>